<mxfile host="app.diagrams.net" modified="2024-05-04T07:48:19.138Z" agent="Mozilla/5.0 (Windows NT 10.0; Win64; x64) AppleWebKit/537.36 (KHTML, like Gecko) Chrome/124.0.0.0 Safari/537.36" etag="yK6BRmkBkveldKME_V1r" version="24.3.1" type="device">
  <diagram name="第 1 页" id="0btut627VXhSuSF58kS8">
    <mxGraphModel dx="1066" dy="546" grid="1" gridSize="10" guides="1" tooltips="1" connect="1" arrows="1" fold="1" page="1" pageScale="1" pageWidth="827" pageHeight="1169" math="0" shadow="0">
      <root>
        <mxCell id="0" />
        <mxCell id="1" parent="0" />
      </root>
    </mxGraphModel>
  </diagram>
</mxfile>
